# xmcd
#
# Track frame offsets: 
#        150
#        16740
#        35873
#        52178
#        68023
#        88468
#        108543
#        130635
#        152140
#        170838
#        192018
#        218115
#        239723
#
# Disc length: 3428 seconds
#
# Revision: 0
# Processed by: cddbd v1.5.2PL0 Copyright (c) Steve Scherf et al.
# Submitted via: ExactAudioCopy v0.99pb4
#
DISCID=bf0d620d
DTITLE=Reg MEUROSS - still
DYEAR=2006
DGENRE=Bluegrass
TTITLE0=my nirvana
TTITLE1=down to the river
TTITLE2=the man in edward hopper's bar
TTITLE3=days like these
TTITLE4=all i want
TTITLE5=dont give up
TTITLE6=something new
TTITLE7=i'll come back
TTITLE8=do you really want my love
TTITLE9=how many days
TTITLE10=the poacher
TTITLE11=morning glory
TTITLE12=it's me or elvis
EXTD=
EXTT0=
EXTT1=
EXTT2=
EXTT3=
EXTT4=
EXTT5=
EXTT6=
EXTT7=
EXTT8=
EXTT9=
EXTT10=
EXTT11=
EXTT12=
PLAYORDER=
